<?xml version="1.0" encoding="utf-8"?>
<!-- Generator: Adobe Illustrator 26.4.0, SVG Export Plug-In . SVG Version: 6.00 Build 0)  -->
<svg version="1.1" id="Layer_1" xmlns="http://www.w3.org/2000/svg" xmlns:xlink="http://www.w3.org/1999/xlink" x="0px" y="0px"
	 viewBox="0 0 512 512" style="enable-background:new 0 0 512 512;" xml:space="preserve">
<style type="text/css">
	.st0{fill:#D19028;}
	.st1{fill:#F6BB42;}
	.st2{fill:#FFD67B;}
	.st3{fill:#ED5564;}
</style>
<path class="st0" d="M448.2,96h-21.3h-42.7h-256V53.3c0-11.8,9.6-21.3,21.3-21.3h266.7c17.7,0,32,14.3,32,32V96z"/>
<path class="st1" d="M352.2,480H85.5l0-416c0-17.7,14.3-32,32-32h266.7v416L352.2,480z"/>
<path class="st2" d="M42.9,458.6V416h298.7v42.7c0,11.8,10.7,21.3,10.7,21.3h-288C52.4,480,42.9,470.4,42.9,458.6L42.9,458.6z"/>
<g>
	<path class="st1" d="M352.2,480c-17.7,0-32-14.3-32-32v-32h64v32C384.2,465.7,369.9,480,352.2,480z"/>
	<path class="st1" d="M384.2,64V32h32C398.5,32,384.2,46.3,384.2,64z"/>
</g>
<g>
	<path class="st3" d="M309.5,137.5c0.5-14-6.9-25.5-18.9-29.3c-11.5-3.7-23.5,1-30.7,12c-10.9,16.6-1.9,25.9,2.9,30.9
		c3.1,3.2,5.1,5.3,5.4,10.1c0.4,5.6,5.1,9.9,10.6,9.9c0.2,0,0.5,0,0.7,0c5.9-0.4,10.3-5.5,9.9-11.4c-0.9-12.5-7.4-19.3-11.3-23.4
		c-0.6-0.6-1.3-1.4-1.8-2c0.2-0.5,0.6-1.3,1.4-2.5c1.8-2.8,4.2-4,6.4-3.3c2.1,0.7,4.2,3.2,4,8.2c-0.2,5.9,4.4,10.8,10.3,11
		C304.4,148.1,309.3,143.4,309.5,137.5z"/>
	<path class="st3" d="M182.8,244.1c5.9,0.2,10.8-4.4,11-10.3c0.5-14-6.9-25.5-18.9-29.3c-11.5-3.6-23.5,1.1-30.7,12
		c-10.9,16.6-1.9,25.9,2.9,30.9c3.1,3.2,5.1,5.3,5.4,10.1c0.4,5.6,5.1,10,10.6,10c0.2,0,0.5,0,0.7,0c5.9-0.4,10.3-5.5,9.9-11.4
		c-0.9-12.5-7.4-19.3-11.3-23.4c-0.6-0.6-1.3-1.4-1.8-2c0.2-0.5,0.6-1.3,1.4-2.5c1.8-2.8,4.2-4,6.4-3.3c2.1,0.7,4.2,3.2,4,8.2
		C172.3,239,176.9,243.9,182.8,244.1z"/>
	<path class="st3" d="M238.5,111.8c-1.9-2.9-5.2-4.8-8.9-4.8c-5.9,0-10.7,4.8-10.7,10.7c0,2.7,1,5.2,2.7,7.1l-0.1,0l-0.1-0.1
		c0.4,0.4,1.4,1.8,1.8,3.3c0.3,1,0.3,1.8-1.2,3.4c-12.5,12.5-7.1,28.8-0.5,36.6l0,0c2,2.2,4.8,3.7,8,3.7c5.9,0,10.7-4.8,10.7-10.7
		c0-2.5-0.9-4.9-2.4-6.7l0,0c-0.4-0.5-1.5-2.1-2-3.9c-0.4-1.7-0.1-2.7,1.2-4C249.1,134.5,244.8,119.7,238.5,111.8z"/>
	<path class="st3" d="M309.7,249.3c0.6-5.2-0.5-13.2-9-21.8c-2-2-2.7-3.3-2.9-3.9c0.2-0.3,0.6-0.6,0.6-0.6c5.2-2.8,7-9.3,4.2-14.5
		c-2.8-5.2-9.3-7-14.5-4.2c-1,0.6-10,5.8-11.5,16.2c-0.7,5.2,0.2,13.2,9,22c2.8,2.8,2.9,4.2,2.9,4.3c0,0.1-0.2,0.4-0.4,0.6
		c-3.4,1.8-5.6,5.3-5.6,9.4c0,5.9,4.8,10.7,10.7,10.7c1.9,0,3.8-0.5,5.3-1.4l0.1,0.2C299.6,265.7,308.4,260,309.7,249.3z"/>
	<path class="st3" d="M203.1,160.3c0-4.1-2.3-7.6-5.6-9.4c-0.7-11.3-3.3-28.9-12-37.7c-4-4-9-6.2-14.4-6.2s-10.4,2.1-14.4,6.2
		c-5.8,5.8-9.4,15.5-11.2,29.6c-0.4,2.9-0.6,5.6-0.8,8.1c-3.4,1.8-5.6,5.3-5.6,9.4c0,5.9,4.8,10.7,10.7,10.7h5.3
		c2.8,0,5.6-1.2,7.6-3.2s3.1-4.8,3.1-7.6c0-0.1-0.1-7.7,1.1-16c1.2-8.6,3-13.1,4.2-15c1.2,2,3.1,6.5,4.3,15.3
		c1.1,8.3,1.1,15.7,1.1,15.7c0,2.8,1.1,5.6,3.1,7.6s4.8,3.2,7.6,3.2h5.3C198.3,171,203.1,166.2,203.1,160.3z"/>
	<path class="st3" d="M192.4,309.6c0,4.1,2.3,7.6,5.6,9.4c0.8,11.3,3.3,28.9,12,37.7c4,4,9,6.2,14.4,6.2s10.4-2.2,14.4-6.2
		c5.8-5.8,9.4-15.5,11.2-29.6c0.4-2.9,0.6-5.6,0.8-8.1c3.4-1.8,5.6-5.3,5.6-9.4c0-5.9-4.8-10.7-10.7-10.7h-5.3
		c-2.9,0-5.6,1.1-7.6,3.2c-2,2-3.1,4.8-3.1,7.6c0,0.1,0.1,7.7-1.1,16c-1.2,8.6-3.1,13.1-4.3,15c-1.2-2-3.1-6.5-4.3-15.3
		c-1.1-8.3-1.1-15.7-1.1-15.8c0-2.8-1.1-5.6-3.1-7.6c-2-2-4.7-3.2-7.6-3.2H203C197.1,299,192.4,303.8,192.4,309.6z"/>
	<path class="st3" d="M139.1,331c0,5.9,4.8,10.7,10.7,10.7v10.7c0,5.9,4.8,10.7,10.7,10.7c5.9,0,10.7-4.8,10.7-10.7v-10.7
		c5.9,0,10.7-4.8,10.7-10.7c0-5.9-4.8-10.7-10.7-10.7v-10.7c0-5.9-4.8-10.7-10.7-10.7c-5.9,0-10.7,4.8-10.7,10.7v10.7
		C143.8,320.3,139.1,325.1,139.1,331z"/>
	<path class="st3" d="M259.8,354.8c1.1,5,5.5,8.4,10.4,8.4c0.8,0,1.5-0.1,2.3-0.2c5.8-1.3,9.4-7,8.1-12.7c-0.8-3.8-0.6-6.8,0.7-8.4
		c0,0,0.1-0.1,0.1-0.2h7v10.7c0,5.9,4.8,10.7,10.7,10.7c5.9,0,10.7-4.8,10.7-10.7v-42.7c0-5.9-4.8-10.7-10.7-10.7
		c-5.9,0-10.7,4.8-10.7,10.7v10.7h-10.2c-1.3,0-2.6,0.2-3.8,0.7C267.4,323.7,255.2,334.2,259.8,354.8z"/>
	<path class="st3" d="M255.7,211c-1.2-4.6-5.2-7.9-10-8c-1.9-0.1-18.7-0.2-31,11.7c-7.9,7.6-11.8,18-11.8,31c0,3,1.2,5.8,3.4,7.8
		c2.2,2,5.1,3,8,2.8l30.4-2.1l1.2,4.5c1.2,4.8,5.6,8,10.3,8c0.9,0,1.8-0.1,2.7-0.3c5.7-1.5,9.1-7.3,7.7-13l-3.3-12.9
		c0-0.1-0.1-0.3-0.1-0.4L255.7,211z M239.3,233.1l-12.8,0.9c0.8-1.5,1.7-2.8,2.9-3.9c2.3-2.3,5.3-3.7,7.9-4.5L239.3,233.1z"/>
</g>
</svg>
