<svg id="crown-svgrepo-com_1_" data-name="crown-svgrepo-com (1)" xmlns="http://www.w3.org/2000/svg" width="66" height="43" viewBox="0 0 66 43">
  <path id="Path_868" data-name="Path 868" d="M66,93.212a4,4,0,1,0-6.827,2.827L47,108.212,35.281,96.493a4,4,0,1,0-4.562,0L19,108.212,6.828,96.039A4,4,0,1,0,3,97.08v35.131H63V97.08A4,4,0,0,0,66,93.212Z" transform="translate(0 -89.212)" fill="#ffea8a"/>
  <path id="Path_869" data-name="Path 869" d="M285,89.212a4,4,0,0,0-2.827,6.827L270,108.212,258.283,96.493A4,4,0,0,0,256,89.212v43h30V97.08a4,4,0,0,0-1-7.868Z" transform="translate(-223.002 -89.212)" fill="#ffdb2d"/>
</svg>
