<svg id="icon-wallet" xmlns="http://www.w3.org/2000/svg" xmlns:xlink="http://www.w3.org/1999/xlink" width="40.609" height="29.475" viewBox="0 0 40.609 29.475">
  <defs>
    <linearGradient id="linear-gradient" y1="0.5" x2="1" y2="0.5" gradientUnits="objectBoundingBox">
      <stop offset="0" stop-color="#d40003"/>
      <stop offset="1" stop-color="#810010"/>
    </linearGradient>
    <linearGradient id="linear-gradient-2" x1="1" y1="0.5" x2="0" y2="0.5" gradientUnits="objectBoundingBox">
      <stop offset="0.441" stop-color="#d40003"/>
      <stop offset="1" stop-color="#a60010"/>
    </linearGradient>
    <linearGradient id="linear-gradient-3" x1="-0.006" y1="0.493" x2="1.018" y2="0.493" xlink:href="#linear-gradient"/>
    <linearGradient id="linear-gradient-4" x1="0.015" y1="0.511" x2="1.006" y2="0.511" xlink:href="#linear-gradient"/>
    <linearGradient id="linear-gradient-5" y1="0.5" x2="1" y2="0.5" gradientUnits="objectBoundingBox">
      <stop offset="0" stop-color="#fd9200"/>
      <stop offset="0.388" stop-color="#fec200"/>
      <stop offset="0.716" stop-color="#fd9200"/>
      <stop offset="1" stop-color="#ee7600"/>
    </linearGradient>
    <linearGradient id="linear-gradient-6" x1="0.5" x2="0.5" y2="1" gradientUnits="objectBoundingBox">
      <stop offset="0.223" stop-color="#d40003"/>
      <stop offset="0.613" stop-color="#a60010"/>
      <stop offset="0.812" stop-color="#810010"/>
    </linearGradient>
  </defs>
  <path id="Path_260" data-name="Path 260" d="M372.465,75.14a27.213,27.213,0,0,1-1.061,2.651,3.23,3.23,0,0,1-2.124,1.791c-.278.065-.567.084-.851.124l-.461-.124-.281-.1,0,0a6.564,6.564,0,0,1-.711-1.094c-.344-.852-.611-1.736-.933-2.676a3.3,3.3,0,0,0-.393,0q-1.452.138-2.9.288-1.992.207-3.984.421l.059-1.01a.874.874,0,0,0,.143-.193,13.075,13.075,0,0,0,.8-3.681,23.741,23.741,0,0,0-.045-2.781c-.037-.741-.133-1.479-.2-2.219.085-.034.168-.073.254-.1a10.713,10.713,0,0,1,4.418-.452c.071.83.184,1.659.2,2.49.019.849-.054,1.7-.086,2.55l-.086.723-.143,1.027c.46-.059.8-.1,1.147-.149,1.063-.162,2.124-.337,3.188-.493,1.019-.15,2.041-.279,3.06-.426,1.094-.159,2.184-.352,3.281-.488.919-.113.922-.086.93-1.021a4.554,4.554,0,0,0,.26-.984,20.955,20.955,0,0,0-.359-4.8,16.845,16.845,0,0,1,4.12-.683c.035.409.087.817.1,1.226.041,1.1.09,2.193.091,3.289s-.051,2.192-.08,3.288l-.523,1.745-.12.278,0,.033-.086.116.014-.005c-.148.021-.3.034-.443.063-1.245.248-2.484.53-3.735.737-.788.131-1.594.152-2.424.225C372.488,74.877,372.476,75.009,372.465,75.14Zm-4.029.716-.71,2.2,2.731-.279c-.188-.529-.373-.982-.506-1.45-.1-.347-.181-.662.259-.953a.966.966,0,0,0-.043-1.629,1.912,1.912,0,0,0-2.515.378.94.94,0,0,0,.172,1.37A5.415,5.415,0,0,0,368.436,75.856Z" transform="translate(-339.943 -59.007)" fill="#fec200"/>
  <path id="Path_261" data-name="Path 261" d="M291.451,113.379c-1.586-.046-3.169-.156-4.755-.23q-3.2-.149-6.4-.273a1.6,1.6,0,0,0-.455.121c.092.658.191,1.314.275,1.973q.317,2.477.622,4.955c.049.4.078.8.115,1.2l.016.173.094.745.061.373.012.178c.123.918.252,1.835.368,2.753.046.361.065.725.1,1.087l1.467.109.363.082c1.786.191,5.373.651,7.159.843.17.025.12-.468.3-1.326.173-.816.233-1.653.367-2.477.3-1.858.639-3.71.916-5.572.19-1.275.3-2.562.453-3.843l.081-.761C292.218,113.244,291.833,113.39,291.451,113.379Z" transform="translate(-276.436 -98.547)" fill="url(#linear-gradient)"/>
  <path id="Path_262" data-name="Path 262" d="M377.106,134.684a5.558,5.558,0,0,1-6.971.967A5.015,5.015,0,0,1,369,133.036l-2.007.218-.436,2.63c.107.15.155.287-.078.363l-.012.1a4.11,4.11,0,0,1-.011.6c-.17,1.049-.365,2.094-.528,3.143-.119.768-.195,1.542-.305,2.311a5,5,0,0,1-.178.642c.707-.091,1.415-.173,2.12-.276.856-.125,1.71-.268,2.564-.4,1.073-.144,2.147-.279,3.218-.435.919-.134,1.835-.294,2.752-.442.165-1.064.324-2.129.5-3.193.188-1.168.388-2.334.577-3.5C377.18,134.761,377.13,134.72,377.106,134.684Z" transform="translate(-345.32 -114.77)" fill="url(#linear-gradient-2)"/>
  <path id="Path_263" data-name="Path 263" d="M349.69,145.269c-.7.184-1.386.392-2.089.538a2.326,2.326,0,0,1-.753-.1,3.288,3.288,0,0,1-.065-.67c.1-.923.217-1.843.335-2.764.135-1.056.277-2.112.416-3.168q.255-1.947.51-3.894,1.149-.095,2.3-.189c.18-.014.36-.02.541-.03l.658.148c-.051.343-.091.684-.152,1.021q-.384,2.1-.779,4.2Q350.15,142.815,349.69,145.269Z" transform="translate(-330.296 -116.344)" fill="#fec200"/>
  <path id="Path_264" data-name="Path 264" d="M403.49,42.621a5.239,5.239,0,0,0-2.909-1.328c-.929-.143-1.88-.142-2.821-.205a2.392,2.392,0,0,1,1.974-1.435,14.947,14.947,0,0,1,1.722-.109l.823.2c.123.057.247.112.369.172a13.449,13.449,0,0,1,1.383.693,7.144,7.144,0,0,1,2.3,2.428l.634,1.92a20.954,20.954,0,0,1,.359,4.8,4.553,4.553,0,0,1-.26.984l-1.31.089c.008-1.249.086-2.5,0-3.746a5.847,5.847,0,0,0-1-2.943,2.163,2.163,0,0,0-.237-.427C404.183,43.335,403.833,42.982,403.49,42.621Z" transform="translate(-371.321 -39.54)" fill="#fd9200"/>
  <path id="Path_265" data-name="Path 265" d="M433.664,133.61a4.109,4.109,0,0,1-2.009.264,2.464,2.464,0,0,1-.021-.533c.414-2.333.841-4.663,1.259-7,.169-.941.327-1.885.489-2.827l2.576-.354c-.114.689-.211,1.38-.344,2.065-.209,1.074-.418,2.149-.67,3.214A26.025,26.025,0,0,1,433.664,133.61Z" transform="translate(-398.569 -106.826)" fill="#fec200"/>
  <path id="Path_266" data-name="Path 266" d="M326.223,42.117l1.559,1.814a13.433,13.433,0,0,0-4.825.475c-.039-.024-.09-.039-.114-.073a8.314,8.314,0,0,0-3.906-2.8c-.066-.025-.157.014-.236.024a.392.392,0,0,1-.136-.012,8.231,8.231,0,0,0-3.329-.842c-.038,0-.072-.086-.108-.131,2.615.051,5.232.065,7.845.172a5.554,5.554,0,0,1,2.909,1.147C325.993,41.968,326.109,42.041,326.223,42.117Z" transform="translate(-304.828 -40.366)" fill="#fec200"/>
  <path id="Path_267" data-name="Path 267" d="M269.734,129.531l-.1.073c-.416.005-.878.072-1.086-.4a9.4,9.4,0,0,1-.375-1.2c-.033-.115-.017-.243-.039-.363-.261-1.42-.53-2.838-.786-4.258q-.5-2.781-.985-5.566c-.09-.514-.16-1.03-.239-1.546l1.677-.149c.034.347.054.7.1,1.041q.353,2.384.722,4.766c.15.974.308,1.947.462,2.92.078.556.157,1.111.234,1.666Q269.529,128.019,269.734,129.531Z" transform="translate(-265.395 -101.153)" fill="#fec200"/>
  <path id="Path_268" data-name="Path 268" d="M342.282,134.437q-.255,1.947-.51,3.894c-.139,1.056-.281,2.112-.416,3.168-.118.921-.238,1.841-.335,2.764a3.283,3.283,0,0,0,.065.67c-.36-.06-.722-.111-1.079-.181a.441.441,0,0,1-.382-.565q.556-4.631,1.1-9.264c.037-.316.08-.632.114-.892Z" transform="translate(-324.535 -115.57)" fill="#ee7600"/>
  <path id="Path_269" data-name="Path 269" d="M424.942,43.017a7.144,7.144,0,0,0-2.3-2.428,13.466,13.466,0,0,0-1.383-.693c-.122-.06-.246-.114-.369-.172a1.79,1.79,0,0,1,.413-.11c.562-.013,1.124,0,1.686-.009a4.487,4.487,0,0,0,.567-.08l1.656.112c.036.053.06.135.109.154a3.442,3.442,0,0,1,.882.318c.743.564,1.447,1.179,2.155,1.788.089.076.107.234.158.354Z" transform="translate(-389.933 -39.524)" fill="#fec200"/>
  <path id="Path_270" data-name="Path 270" d="M273.447,56.606c.239-.764.426-1.548.725-2.287a5.492,5.492,0,0,1,4.344-3.573,4.8,4.8,0,0,1,.822-.008l-.933.278-1.1.532A5.252,5.252,0,0,0,275.17,54.4a9.049,9.049,0,0,0-.693,3.187c-.092,1.413-.072,2.833-.1,4.25l-.02.1a1.473,1.473,0,0,1-1.1.544q0-.745,0-1.49A26.134,26.134,0,0,1,273.447,56.606Z" transform="translate(-271.137 -48.535)" fill="#ee7600"/>
  <g id="Group_161" data-name="Group 161" transform="translate(14.07 4.482)">
    <path id="Path_271" data-name="Path 271" d="M349.845,130.28v0h0Z" transform="translate(-346.83 -117.031)" fill="url(#linear-gradient-3)"/>
    <path id="Path_272" data-name="Path 272" d="M334.436,62.478v0l0,0Z" transform="translate(-334.432 -62.471)" fill="url(#linear-gradient-4)"/>
  </g>
  <path id="Path_273" data-name="Path 273" d="M428.115,124.977c-.163.943-.321,1.886-.49,2.827-.419,2.332-.845,4.663-1.259,7a2.466,2.466,0,0,0,.021.533,9.349,9.349,0,0,1-.922-.157.336.336,0,0,1-.373-.448c.474-2.292.955-4.584,1.424-6.877.183-.893.342-1.79.512-2.685Z" transform="translate(-393.301 -108.285)" fill="#ee7600"/>
  <path id="Path_274" data-name="Path 274" d="M422.934,125.882c-.17.9-.329,1.793-.512,2.686-.469,2.293-.949,4.585-1.424,6.877a1.4,1.4,0,0,0-.015.182l-.994.093c.165-1.064.324-2.129.5-3.193.188-1.168.388-2.334.577-3.5.005-.032-.044-.073-.069-.109a7.885,7.885,0,0,0,1.3-2.58C422.4,125.982,422.568,125.819,422.934,125.882Z" transform="translate(-389.208 -109.002)" fill="#a60010"/>
  <path id="Path_275" data-name="Path 275" d="M441.627,53.594l3.577-.767.967-.158a4.208,4.208,0,0,1,.854,2.105l-.643.057a16.845,16.845,0,0,0-4.12.683Z" transform="translate(-406.618 -50.101)" fill="#f4f4f4"/>
  <path id="Path_276" data-name="Path 276" d="M275.981,122.735c-.155-.973-.313-1.946-.462-2.92q-.367-2.382-.722-4.766c-.051-.345-.071-.694-.1-1.041l0-.1,1.007-.411c.092.658.191,1.314.275,1.973q.317,2.477.622,4.955c.049.4.078.8.115,1.2l-.372-.337v1.934l-.074-.012Z" transform="translate(-272.289 -99.047)" fill="#fd9200"/>
  <path id="Path_277" data-name="Path 277" d="M265.69,115.6l0,.1-1.677.149c.079.515.149,1.032.239,1.546q.486,2.784.985,5.566c.256,1.42.525,2.839.786,4.258.022.119.007.247.039.363a9.4,9.4,0,0,0,.374,1.2c.208.477.67.41,1.086.4a1.01,1.01,0,0,1-1.551-.466,16.02,16.02,0,0,1-.635-2.464c-.6-3.251-1.159-6.508-1.731-9.763-.054-.306-.075-.619-.1-.858h1.727l.276-.02Z" transform="translate(-263.291 -100.74)" fill="#f9f800"/>
  <path id="Path_278" data-name="Path 278" d="M442.069,133.1a26.025,26.025,0,0,0,1.28-5.167c.252-1.065.461-2.14.67-3.214.133-.685.231-1.377.344-2.065l.945-.124c-.179.748-.337,1.424-.5,2.1q-.906,3.674-1.818,7.347C442.859,132.491,442.687,132.978,442.069,133.1Z" transform="translate(-406.974 -106.314)" fill="#f9f800"/>
  <path id="Path_279" data-name="Path 279" d="M391.512,130.459l.461.124a5.635,5.635,0,0,1-2.445-.174,1.385,1.385,0,0,1-1.055-.981c-.176-.754-.3-1.519-.447-2.28l1.4-.183a16.035,16.035,0,0,0,.355,1.567,2.573,2.573,0,0,0,1.45,1.829l0,0Z" transform="translate(-363.487 -109.885)" fill="#ee7600"/>
  <path id="Path_280" data-name="Path 280" d="M366.379,128.8a2.573,2.573,0,0,1-1.45-1.829,16.045,16.045,0,0,1-.355-1.567l-1.4.183c-.86.093-1.72.181-2.58.28-1.08.124-2.159.257-3.239.386l-.215-.109.318-.4q1.992-.211,3.984-.421,1.451-.15,2.9-.288a3.3,3.3,0,0,1,.393,0c.322.94.589,1.824.933,2.676A6.559,6.559,0,0,0,366.379,128.8Z" transform="translate(-338.631 -108.323)" fill="#f9f800"/>
  <path id="Path_281" data-name="Path 281" d="M281.3,154.846l.281.48.074.012V153.4l.373.337.016.173a.519.519,0,0,0,.094.745l.061.373-.129.094.141.085c.123.918.252,1.835.368,2.753.046.361.065.725.1,1.087l-.728.486q-.207-1.512-.414-3.024C281.462,155.957,281.383,155.4,281.3,154.846Z" transform="translate(-277.613 -131.158)" fill="#ee7600"/>
  <path id="Path_282" data-name="Path 282" d="M465.968,63.5l.643-.057a5.194,5.194,0,0,1,.176.841,24.113,24.113,0,0,1-.675,6.986c0,.013-.02.023-.03.034.029-1.1.081-2.192.08-3.289s-.05-2.193-.091-3.289C466.055,64.32,466,63.911,465.968,63.5Z" transform="translate(-426.204 -58.773)" fill="#f9f800"/>
  <path id="Path_283" data-name="Path 283" d="M361.686,144.591q.459-2.455.918-4.909.391-2.1.779-4.2c.062-.337.1-.678.152-1.021l-.658-.148,1.093-.165-.436,2.63-.078.363-.012.1c-.219,1.162-.444,2.324-.656,3.488-.2,1.074-.377,2.151-.565,3.226Z" transform="translate(-342.293 -115.666)" fill="#f9f800"/>
  <path id="Path_284" data-name="Path 284" d="M447.292,42.553l-.967.158c-.051-.12-.07-.278-.158-.354-.708-.609-1.412-1.224-2.155-1.788a3.44,3.44,0,0,0-.882-.318c-.049-.018-.073-.1-.109-.154a6.668,6.668,0,0,1,3.7,1.751A8.418,8.418,0,0,1,447.292,42.553Z" transform="translate(-407.739 -39.985)" fill="#f9f800"/>
  <path id="Path_285" data-name="Path 285" d="M428.895,116.209l.036-.408c.83-.073,1.636-.094,2.424-.225,1.251-.208,2.49-.489,3.735-.737.146-.029.3-.042.443-.063a1.393,1.393,0,0,1-1.123.671C432.57,115.686,430.733,115.953,428.895,116.209Z" transform="translate(-396.373 -100.077)" fill="#f9f800"/>
  <path id="Path_286" data-name="Path 286" d="M364.436,156.685c.188-1.076.369-2.152.565-3.226.212-1.164.437-2.325.656-3.488a4.109,4.109,0,0,1-.011.6c-.17,1.049-.365,2.094-.528,3.143-.119.768-.195,1.542-.306,2.311a5,5,0,0,1-.178.642Z" transform="translate(-344.505 -128.397)" fill="#810010"/>
  <path id="Path_287" data-name="Path 287" d="M420.169,39.524a4.487,4.487,0,0,1-.567.08c-.562.011-1.124,0-1.686.009a1.79,1.79,0,0,0-.413.11l-.823-.2Z" transform="translate(-386.544 -39.524)" fill="#f9f800"/>
  <path id="Path_288" data-name="Path 288" d="M351.265,130.37l.215.109a1.636,1.636,0,0,1-1.641-.2c.106,0,.213,0,.318.012C350.527,130.314,350.9,130.342,351.265,130.37Z" transform="translate(-332.761 -112.549)" fill="#fd9200"/>
  <path id="Path_289" data-name="Path 289" d="M262.4,87.5l0,2Z" transform="translate(-262.404 -78.129)" fill="#810010"/>
  <path id="Path_290" data-name="Path 290" d="M348.9,126l.15.839C348.735,126.608,348.883,126.292,348.9,126Z" transform="translate(-331.964 -109.109)" fill="#fd9200"/>
  <path id="Path_291" data-name="Path 291" d="M272.621,115.7l-.276.02Z" transform="translate(-270.403 -100.818)" fill="#fec200"/>
  <path id="Path_292" data-name="Path 292" d="M463.258,112.9l.12-.278Z" transform="translate(-424.024 -98.342)" fill="#f9f800"/>
  <path id="Path_293" data-name="Path 293" d="M317.5,109.635l.222-.039Z" transform="translate(-306.736 -95.908)" fill="#d40003"/>
  <path id="Path_294" data-name="Path 294" d="M462.8,114.325l.086-.116Z" transform="translate(-423.659 -99.62)" fill="#f9f800"/>
  <path id="Path_295" data-name="Path 295" d="M361.239,60.422l.092.549a10.713,10.713,0,0,0-4.418.452c-.086.029-.17.067-.254.1-.074-.24-.161-.477-.221-.721a10.936,10.936,0,0,0-1.225-2.774,13.432,13.432,0,0,1,4.825-.475,7.7,7.7,0,0,1,1.138,2.767l.064.1Z" transform="translate(-337.083 -53.989)" fill="#f4f4f4"/>
  <path id="Path_296" data-name="Path 296" d="M386.1,98.373l5.925-.817q2.036-.28,4.072-.561a.537.537,0,0,0,.158-.084l1.31-.089c-.008.935-.011.908-.93,1.021-1.1.136-2.187.329-3.281.488-1.019.148-2.041.276-3.06.426-1.064.157-2.125.331-3.189.493-.342.052-.686.089-1.147.149Z" transform="translate(-361.826 -85.63)" fill="#f9f800"/>
  <path id="Path_297" data-name="Path 297" d="M337.676,48.331a10.938,10.938,0,0,1,1.225,2.774c.06.244.147.481.221.721.07.74.166,1.478.2,2.219a23.734,23.734,0,0,1,.045,2.781,13.075,13.075,0,0,1-.8,3.681.873.873,0,0,1-.143.193c.051-.749.125-1.5.149-2.246.041-1.3.137-2.6.053-3.889a12.6,12.6,0,0,0-.869-4.176,26.145,26.145,0,0,0-1.256-2.381c-.08-.144-.265-.231-.4-.344l0,.014L336,47.489l0,0-.465-.463a6.171,6.171,0,0,0-2.124-1.548c.079-.009.17-.049.236-.024a8.314,8.314,0,0,1,3.906,2.8C337.586,48.292,337.637,48.307,337.676,48.331Z" transform="translate(-319.547 -44.291)" fill="#f9f800"/>
  <path id="Path_298" data-name="Path 298" d="M404.135,115.79a5.417,5.417,0,0,1-.612-.365.94.94,0,0,1-.172-1.37,1.912,1.912,0,0,1,2.515-.378.966.966,0,0,1,.043,1.629c-.44.29-.358.606-.259.953.134.468.319.921.506,1.45l-2.731.279Z" transform="translate(-375.642 -98.941)" fill="#310303"/>
  <path id="Path_299" data-name="Path 299" d="M404.717,144.431l-.281-.1Z" transform="translate(-376.692 -123.857)" fill="#f9f800"/>
  <path id="Path_300" data-name="Path 300" d="M284.728,156.758a.519.519,0,0,1-.094-.745Z" transform="translate(-280.198 -133.258)" fill="#fd9200"/>
  <path id="Path_301" data-name="Path 301" d="M285.387,161.916l-.141-.085.129-.094Z" transform="translate(-280.784 -137.865)" fill="#fd9200"/>
  <path id="Path_302" data-name="Path 302" d="M370.744,147.979l.078-.363C370.929,147.766,370.977,147.9,370.744,147.979Z" transform="translate(-349.581 -126.502)" fill="#810010"/>
  <path id="Path_303" data-name="Path 303" d="M281.487,50.584a12.6,12.6,0,0,0-.869-4.176,26.144,26.144,0,0,0-1.256-2.381c-.08-.144-.265-.231-.4-.344l-.005.013-.094-.188,0,0-.466-.463a6.17,6.17,0,0,0-2.124-1.548.393.393,0,0,1-.136-.012,8.231,8.231,0,0,0-3.329-.842c-.038,0-.072-.086-.108-.131l-.644-.013c-.407.021-.814.057-1.221.06a6.843,6.843,0,0,0-.942-.047,13.76,13.76,0,0,0-2,.413,6.835,6.835,0,0,0-4.038,3.262,11.435,11.435,0,0,0-1.452,5.493q0,1,0,2l.024,0c.056.627.1,1.256.17,1.882a.776.776,0,0,0,.84.777,10.625,10.625,0,0,0,1.09-.088q0-.745,0-1.49a26.134,26.134,0,0,1,.182-4.382c.239-.764.426-1.548.725-2.287a5.492,5.492,0,0,1,4.344-3.573,4.806,4.806,0,0,1,.822-.008l2.266.1.1.023.027.009.019.021.033,0c.217.07.436.133.649.21a5.963,5.963,0,0,1,2.771,1.831l.006.1.953,1.051.017-.008.262.37-.005.016.219.427-.015,0,.07.018-.042.055a15.911,15.911,0,0,1,1.253,4.311l.025.282.164,1.459.036,1.474a5.537,5.537,0,0,1,.036.587c-.031.787-.074,1.573-.113,2.359l.149.835c.1,0,.21,0,.314.012.369.026.738.055,1.107.083l.318-.4.059-1.01c.051-.749.125-1.5.149-2.246C281.476,53.177,281.571,51.874,281.487,50.584Z" transform="translate(-262.404 -40.311)" fill="url(#linear-gradient-5)"/>
  <path id="Path_304" data-name="Path 304" d="M348.119,94.737h-.042l-.042,0,.059-.282Z" transform="translate(-331.309 -83.725)" fill="#810010"/>
  <path id="Path_305" data-name="Path 305" d="M341.8,72.081a.075.075,0,0,1-.028-.073l.07.018Z" transform="translate(-326.268 -65.663)" fill="#fd9200"/>
  <path id="Path_306" data-name="Path 306" d="M315.984,51.294l.126.028Z" transform="translate(-305.518 -48.995)" fill="#fd9200"/>
  <path id="Path_307" data-name="Path 307" d="M334.422,61.993l.006.1Z" transform="translate(-320.354 -57.604)" fill="#310303"/>
  <path id="Path_308" data-name="Path 308" d="M384.97,53.435a5.848,5.848,0,0,0-1-2.943,2.174,2.174,0,0,0-.237-.427c-.331-.371-.681-.724-1.024-1.084a5.239,5.239,0,0,0-2.909-1.328c-.929-.143-1.88-.142-2.821-.205a2.97,2.97,0,0,1-.476.09c-1.523.042-3.046.076-4.569.112l1.559,1.814a7.694,7.694,0,0,1,1.138,2.767l.064.1h0l.092.549c.071.83.184,1.659.2,2.49.019.849-.054,1.7-.086,2.55q-.043.361-.086.723l5.925-.817q2.036-.28,4.072-.561a.537.537,0,0,0,.158-.084C384.977,55.931,385.055,54.678,384.97,53.435Z" transform="translate(-350.537 -45.899)" fill="url(#linear-gradient-6)"/>
  <path id="Path_309" data-name="Path 309" d="M418.288,54.122l-.068-.1.068.1Z" transform="translate(-387.783 -51.193)" fill="#a60010"/>
  <path id="Path_310" data-name="Path 310" d="M385.8,72.037l-.064-.1Z" transform="translate(-361.645 -65.604)" fill="#a60010"/>
  <path id="Path_311" data-name="Path 311" d="M292.644,61.069l-.164-1.459h-.08V59.6l.057-.274a15.912,15.912,0,0,0-1.253-4.311.075.075,0,0,1-.028-.073l.015,0-.219-.427.005-.016-.262-.37-.017.008-.953-1.051-.006-.1a5.963,5.963,0,0,0-2.771-1.831c-.214-.078-.433-.141-.65-.21l-.033,0-.023-.024-.126-.028-2.266-.1-.933.278-1.1.532a5.252,5.252,0,0,0-2.135,2.852,9.047,9.047,0,0,0-.693,3.187c-.092,1.413-.072,2.833-.1,4.25l-.02.1c.9.049,1.793.1,2.689.145,1.551.069,3.1.128,4.654.192l.2-.008.222-.039a1.978,1.978,0,0,0,.355.08q2.232.092,4.465.173l1.208.005Z" transform="translate(-275.669 -48.597)" fill="url(#linear-gradient)"/>
  <path id="Path_312" data-name="Path 312" d="M344.291,53.538l.465.463Z" transform="translate(-328.295 -50.801)" fill="#ee7600"/>
  <path id="Path_313" data-name="Path 313" d="M346.656,55.9l.094.188Z" transform="translate(-330.198 -52.697)" fill="#ee7600"/>
</svg>
